# xmcd CD database file
# Copyright (C) 1993-2000  Ti Kan
#
# Track frame offsets:
#	150
#	20075
#	37850
#	65187
#	85392
#	105080
#	130192
#	157670
#	173000
#	184690
#	204827
#	216522
#	236685
#	259767
#
# Disc length: 3825 seconds
#
# Revision: 1
# Processed by: cddbd v1.4PL0 Copyright (c) Steve Scherf et al.
# Submitted via: xmcd 2.6 PL0
#
DISCID=b50eef0e
DTITLE=Ave de Veludo - Elétrico Blues
DYEAR=1900
DGENRE=
TTITLE0=Blues meu amigo
TTITLE1=Olhos acesos
TTITLE2=Lamento blues
TTITLE3=Que choque que eu levei
TTITLE4=Campos de aço
TTITLE5=Desabafo blues
TTITLE6=Seus sonhos meus pesadelos
TTITLE7=Lenda das aves
TTITLE8=Vida mágica
TTITLE9=Gardênia blues
TTITLE10=Rock'n'Roll doçura
TTITLE11=De pai pra filho
TTITLE12=Andarilho
TTITLE13=Onde erramos
EXTD=
EXTT0=
EXTT1=
EXTT2=
EXTT3=
EXTT4=
EXTT5=
EXTT6=
EXTT7=
EXTT8=
EXTT9=
EXTT10=
EXTT11=
EXTT12=
EXTT13=
PLAYORDER=
